HIERARCHY
ROOT root
{
	OFFSET	0	13.1	24.9
	CHANNELS 6  Xposition Yposition Zposition Xrotation Yrotation Zrotation
	JOINT spine_1
	{
		OFFSET	0	9.99999	0
		CHANNELS 3  Xrotation Yrotation Zrotation
		JOINT spine_2
		{
			OFFSET	0	112	-10
			CHANNELS 3  Xrotation Yrotation Zrotation
			JOINT spine_3
			{
				OFFSET	0	206.5	19.3
				CHANNELS 3  Xrotation Yrotation Zrotation
				JOINT spine_4
				{
					OFFSET	0	110.4	14.6
					CHANNELS 3  Xrotation Yrotation Zrotation
					JOINT neck_1
					{
						OFFSET	0	71.8	-50.3
						CHANNELS 3  Xrotation Yrotation Zrotation
						JOINT neck_2
						{
							OFFSET	0	86.2	-25.8
							CHANNELS 3  Xrotation Yrotation Zrotation
							JOINT head_ee
							{
								OFFSET	0	179.8	-8.7
								CHANNELS 3  Xrotation Yrotation Zrotation
								End Site
								{
									OFFSET	1	0	0
								}
							}
						}
					}
					JOINT left_clavicle
					{
						OFFSET	-43.2	22.4	-70.8
						CHANNELS 3  Xrotation Yrotation Zrotation
						JOINT left_shoulder
						{
							OFFSET	-93.9	-5.79999	48.7
							CHANNELS 3  Xrotation Yrotation Zrotation
							JOINT left_elbow
							{
								OFFSET	-291.4	-30.8	15.2
								CHANNELS 3  Xrotation Yrotation Zrotation
								JOINT left_lowarm_twist
								{
									OFFSET	-110.7	-3.89999	13.6
									CHANNELS 3  Xrotation Yrotation Zrotation
									JOINT left_hand
									{
										OFFSET	-110.7	-3.89999	13.6
										CHANNELS 3  Xrotation Yrotation Zrotation
										JOINT left_ee
										{
											OFFSET	-80.8	-5.10001	12.1
											CHANNELS 3  Xrotation Yrotation Zrotation
											End Site
											{
												OFFSET	1	0	0
											}
										}
									}
								}
							}
						}
					}
					JOINT right_clavicle
					{
						OFFSET	43.2	22.4	-70.8
						CHANNELS 3  Xrotation Yrotation Zrotation
						JOINT right_shoulder
						{
							OFFSET	93.9	-5.79999	48.7
							CHANNELS 3  Xrotation Yrotation Zrotation
							JOINT right_elbow
							{
								OFFSET	291.4	-30.8	15.2
								CHANNELS 3  Xrotation Yrotation Zrotation
								JOINT right_lowarm_twist
								{
									OFFSET	110.7	-3.89999	13.6
									CHANNELS 3  Xrotation Yrotation Zrotation
									JOINT right_hand
									{
										OFFSET	110.7	-3.89999	13.6
										CHANNELS 3  Xrotation Yrotation Zrotation
										JOINT right_ee
										{
											OFFSET	80.8	-5.10001	12.1
											CHANNELS 3  Xrotation Yrotation Zrotation
											End Site
											{
												OFFSET	1	0	0
											}
										}
									}
								}
							}
						}
					}
				}
			}
		}
	}
	JOINT left_hip
	{
		OFFSET	-82.8	-127.5	0.300001
		CHANNELS 3  Xrotation Yrotation Zrotation
		JOINT left_knee
		{
			OFFSET	-28.2	-396.7	2.2
			CHANNELS 3  Xrotation Yrotation Zrotation
			JOINT left_ankle
			{
				OFFSET	-11.7	-411.3	35.4
				CHANNELS 3  Xrotation Yrotation Zrotation
				JOINT left_toes
				{
					OFFSET	0	-60	-88.6
					CHANNELS 3  Xrotation Yrotation Zrotation
					JOINT left_foot_ee
					{
						OFFSET	-22.5	-16.5	-42.2
						CHANNELS 3  Xrotation Yrotation Zrotation
						End Site
						{
							OFFSET	1	0	0
						}
					}
				}
			}
		}
	}
	JOINT right_hip
	{
		OFFSET	82.8	-127.5	0.300001
		CHANNELS 3  Xrotation Yrotation Zrotation
		JOINT right_knee
		{
			OFFSET	28.2	-396.7	2.2
			CHANNELS 3  Xrotation Yrotation Zrotation
			JOINT right_ankle
			{
				OFFSET	11.7	-411.3	35.4
				CHANNELS 3  Xrotation Yrotation Zrotation
				JOINT right_toes
				{
					OFFSET	0	-60	-88.6
					CHANNELS 3  Xrotation Yrotation Zrotation
					JOINT right_foot_ee
					{
						OFFSET	22.5	-16.5	-42.2
						CHANNELS 3  Xrotation Yrotation Zrotation
						End Site
						{
							OFFSET	1	0	0
						}
					}
				}
			}
		}
	}
}
MOTION
Frames: 14
Frame Time: 0.02
1372.05 701.618 -1475.22 1.07636150552 58.4762543477 -8.58741602193 -1.7807 0.786586 5.74787 -1.76243 0.419866 5.7861 -1.70207 -0.978433 5.71843 -1.74766 -0.0646163 5.8009 -11.9205 15.7275 -11.9324 -12.3036 37.3948 -6.87405 -0.0 0.0 -0.0 -4.15337 9.70198 -6.09029 29.3422 -14.7602 53.818 6.2627 -72.1011 4.5607 -45.553 -3.56013 4.43035 3.78148 13.8267 31.0074 -0.0 0.0 -0.0 11.9163 15.3449 -23.9942 -25.8637 39.9509 -60.853 0.248441 7.01631 -0.0152308 -64.6099 5.86099 -5.22141 -6.51129 -22.0569 30.8509 0.0 0.0 0.0 -16.3459 18.0989 16.8268 -10.438 0.287061 1.57397 35.8815 18.0011 -4.59184 -26.0655 0.0 0.0 -0.0 0.0 -0.0 36.1158 27.2374 -7.54736 -7.78371 -0.241355 -1.16927 -2.14762 -20.6156 -0.323021 13.7389 -0.0 -0.0 0.0 0.0 0.0 
1258.56784355 680.906 -1486.62767583 -0.896301340126 66.0999107102 -8.2051271945 -1.92786 0.882232 5.47806 -1.91133 0.532406 5.52291 -1.84252 -0.818813 5.48787 -1.88452 0.0567844 5.54814 -5.36925 13.8174 -13.9823 -4.27562 35.74 -12.1368 -0.0 0.0 -0.0 -5.62103 14.7208 -7.40609 24.3349 -21.6046 59.836 5.5408 -69.9535 3.8779 -37.9212 -2.73284 3.9074 3.65316 9.12456 28.6073 -0.0 0.0 -0.0 11.9435 16.7655 -23.9962 -23.835 38.6289 -59.9144 0.211798 5.98962 -0.0110806 -64.945 5.90336 -5.22832 -5.65611 -22.0979 25.0158 0.0 0.0 0.0 -20.5652 13.0702 19.2669 -9.15223 0.267263 1.37767 39.7784 18.8989 -4.98344 -25.8236 0.0 0.0 -0.0 0.0 -0.0 37.4395 31.5817 -8.3502 -20.6764 -0.286985 -3.14278 -18.6997 -15.5223 -2.82969 12.972 -0.0 -0.0 0.0 0.0 0.0 
1258.74423505 680.906 -1488.26371607 -0.868129377998 65.2733634629 -8.23604018062 -1.92786 0.882232 5.47806 -1.91133 0.532406 5.52291 -1.84252 -0.818813 5.48787 -1.88452 0.0567844 5.54814 -5.36925 13.8174 -13.9823 -4.27562 35.74 -12.1368 -0.0 0.0 -0.0 -5.62103 14.7208 -7.40609 24.3349 -21.6046 59.836 5.5408 -69.9535 3.8779 -37.9212 -2.73284 3.9074 3.65316 9.12456 28.6073 -0.0 0.0 -0.0 11.9435 16.7655 -23.9962 -23.835 38.6289 -59.9144 0.211798 5.98962 -0.0110806 -64.945 5.90336 -5.22832 -5.65611 -22.0979 25.0158 0.0 0.0 0.0 -20.5652 13.0702 19.2669 -9.15223 0.267263 1.37767 39.7784 18.8989 -4.98344 -25.8236 0.0 0.0 -0.0 0.0 -0.0 37.4395 31.5817 -8.3502 -20.6764 -0.286985 -3.14278 -18.6997 -15.5223 -2.82969 12.972 -0.0 -0.0 0.0 0.0 0.0 
1209.96475094 682.258 -1500.885536 0.244217660238 69.9097976871 -8.83181241988 -1.92957 1.04964 5.60819 -1.91235 0.691241 5.66337 -1.82513 -0.696324 5.66275 -1.86979 0.205236 5.70158 -4.90294 15.0183 -12.6762 -3.82172 36.9924 -10.7328 -0.0 0.0 -0.0 -6.49408 19.4097 -7.48483 22.4573 -23.6762 61.7464 4.61121 -66.3351 3.01469 -33.9607 -2.33297 3.59405 3.30506 6.04394 24.9852 -0.0 0.0 -0.0 12.8441 19.5748 -25.9126 -21.2378 39.7425 -60.5897 0.213939 6.04972 -0.0113052 -64.2475 5.81522 -5.21365 -5.32361 -21.8664 23.0287 0.0 0.0 0.0 -16.261 12.2888 15.5384 -21.1487 0.280217 3.21493 37.7913 24.9112 -4.94793 -26.8881 0.0 0.0 -0.0 0.0 -0.0 36.1104 32.0535 -9.35211 -27.1793 -0.14173 -4.1296 -11.4481 -7.39218 -1.71031 14.2401 -0.0 -0.0 0.0 0.0 0.0 
1189.62576876 688.212 -1504.340274 0.856466904029 70.2652796622 -8.54498515219 -1.97032 1.07171 5.60905 -1.95311 0.713205 5.66562 -1.86341 -0.679251 5.66978 -1.90817 0.223202 5.70584 -5.31359 15.2223 -12.3862 -4.33857 37.1441 -10.2155 -0.0 0.0 -0.0 -7.0647 20.3268 -8.07465 19.8757 -23.4241 61.956 4.28544 -64.7568 2.71812 -31.6661 -2.11155 3.40017 3.2214 4.64265 23.8689 -0.0 0.0 -0.0 13.51 20.8565 -27.3735 -19.3367 40.4966 -59.9005 0.210464 5.95217 -0.0109419 -63.8563 5.76586 -5.20496 -5.13162 -21.6059 21.9864 0.0 0.0 0.0 -14.3577 11.8067 13.4586 -26.9732 0.148046 4.09861 36.0329 26.1514 -4.80555 -27.2622 0.0 0.0 -0.0 0.0 -0.0 35.3782 31.5535 -10.4574 -29.3529 -0.0683086 -4.45509 -8.94285 -3.65208 -1.3364 13.57 -0.0 -0.0 0.0 0.0 0.0 
1190.36642797 688.212 -1508.65157421 0.803649520591 68.9086382023 -8.48863268369 -1.97032 1.07171 5.60905 -1.95311 0.713205 5.66562 -1.86341 -0.679251 5.66978 -1.90817 0.223202 5.70584 -5.31359 15.2223 -12.3862 -4.33857 37.1441 -10.2155 -0.0 0.0 -0.0 -7.0647 20.3268 -8.07465 19.8757 -23.4241 61.956 4.28544 -64.7568 2.71812 -31.6661 -2.11155 3.40017 3.2214 4.64265 23.8689 -0.0 0.0 -0.0 13.51 20.8565 -27.3735 -19.3367 40.4966 -59.9005 0.210464 5.95217 -0.0109419 -63.8563 5.76586 -5.20496 -5.13162 -21.6059 21.9864 0.0 0.0 0.0 -14.3577 11.8067 13.4586 -26.9732 0.148046 4.09861 36.0329 26.1514 -4.80555 -27.2622 0.0 0.0 -0.0 0.0 -0.0 35.3782 31.5535 -10.4574 -29.3529 -0.0683086 -4.45509 -8.94285 -3.65208 -1.3364 13.57 -0.0 -0.0 0.0 0.0 0.0 
1117.4860553 687.164 -1511.10742199 3.92552215586 70.3297311622 -12.0717488129 -2.15726 1.32683 5.97955 -2.13787 0.944362 6.0515 -2.01461 -0.56365 6.09857 -2.06624 0.404728 6.11113 -3.45449 15.8071 -11.7801 -2.14274 37.7649 -10.2619 -0.0 0.0 -0.0 -7.8004 23.5154 -8.09619 13.1229 -22.2423 62.3347 3.17485 -57.5377 1.74345 -29.3294 -1.89427 3.19387 2.93286 2.59027 21.0237 -0.0 0.0 -0.0 12.9609 24.3775 -25.7676 -11.3833 44.2771 -64.6723 0.32003 9.00852 -0.0252109 -63.7236 5.74914 -5.20193 -4.81349 -21.0669 20.3408 0.0 0.0 0.0 -8.47436 9.24163 9.55237 -37.1013 -0.292727 5.58819 35.2219 26.0554 -4.71669 -27.1558 0.0 0.0 -0.0 0.0 -0.0 32.2189 31.7449 -11.5356 -33.8636 0.123206 -5.12061 -5.57094 6.20994 -0.853142 15.0107 -0.0 -0.0 0.0 0.0 0.0 
1119.1480856 687.164 -1521.3863372 3.52890032541 68.0138461996 -11.6474827207 -2.15726 1.32683 5.97955 -2.13787 0.944362 6.0515 -2.01461 -0.56365 6.09857 -2.06624 0.404728 6.11113 -3.45449 15.8071 -11.7801 -2.14274 37.7649 -10.2619 -0.0 0.0 -0.0 -7.8004 23.5154 -8.09619 13.1229 -22.2423 62.3347 3.17485 -57.5377 1.74345 -29.3294 -1.89427 3.19387 2.93286 2.59027 21.0237 -0.0 0.0 -0.0 12.9609 24.3775 -25.7676 -11.3833 44.2771 -64.6723 0.32003 9.00852 -0.0252109 -63.7236 5.74914 -5.20193 -4.81349 -21.0669 20.3408 0.0 0.0 0.0 -8.47436 9.24163 9.55237 -37.1013 -0.292727 5.58819 35.2219 26.0554 -4.71669 -27.1558 0.0 0.0 -0.0 0.0 -0.0 32.2189 31.7449 -11.5356 -33.8636 0.123206 -5.12061 -5.57094 6.20994 -0.853142 15.0107 -0.0 -0.0 0.0 0.0 0.0 
1098.63714978 691.639 -1524.41831639 3.85333976314 67.3359673524 -12.2108040761 -1.96202 1.36035 6.01496 -1.94243 0.975572 6.08896 -1.81597 -0.521025 6.14436 -1.86832 0.454014 6.14965 -2.85442 15.5282 -12.0853 -1.40441 37.4812 -10.8845 -0.0 0.0 -0.0 -7.98929 24.2151 -8.11753 10.5305 -21.1815 62.8371 2.97123 -55.7961 1.57331 -28.7938 -1.84567 3.14535 2.86864 2.32731 20.4654 -0.0 0.0 -0.0 12.7126 24.8576 -25.1424 -8.95396 45.2566 -66.3876 0.387405 10.8637 -0.036838 -63.6893 5.74481 -5.20114 -4.89771 -20.8897 21.0026 0.0 0.0 0.0 -7.06699 9.34192 10.0125 -39.9077 -0.460903 5.98536 34.3884 26.0969 -4.62835 -27.3066 0.0 0.0 -0.0 0.0 -0.0 29.4822 32.0187 -10.6153 -34.2397 0.141534 -5.17539 -4.98823 7.1447 -0.766443 15.2528 -0.0 -0.0 0.0 0.0 0.0 
1101.16493338 691.639 -1536.83446002 3.47744003309 64.7277683776 -11.799539244 -1.96202 1.36035 6.01496 -1.94243 0.975572 6.08896 -1.81597 -0.521025 6.14436 -1.86832 0.454014 6.14965 -2.85442 15.5282 -12.0853 -1.40441 37.4812 -10.8845 -0.0 0.0 -0.0 -7.98929 24.2151 -8.11753 10.5305 -21.1815 62.8371 2.97123 -55.7961 1.57331 -28.7938 -1.84567 3.14535 2.86864 2.32731 20.4654 -0.0 0.0 -0.0 12.7126 24.8576 -25.1424 -8.95396 45.2566 -66.3876 0.387405 10.8637 -0.036838 -63.6893 5.74481 -5.20114 -4.89771 -20.8897 21.0026 0.0 0.0 0.0 -7.06699 9.34192 10.0125 -39.9077 -0.460903 5.98536 34.3884 26.0969 -4.62835 -27.3066 0.0 0.0 -0.0 0.0 -0.0 29.4822 32.0187 -10.6153 -34.2397 0.141534 -5.17539 -4.98823 7.1447 -0.766443 15.2528 -0.0 -0.0 0.0 0.0 0.0 
1035.04932114 697.096 -1505.85816166 4.19892262246 70.8115274264 -11.7479182869 -1.34576 1.09645 5.86654 -1.32692 0.721598 5.92414 -1.23474 -0.668645 5.93033 -1.28367 0.274611 5.96147 -1.07607 12.118 -17.5164 1.27682 35.6263 -18.108 -0.0 0.0 -0.0 -8.58526 23.707 -9.15444 3.792 -14.7704 68.0781 1.78475 -41.4765 0.675808 -29.2741 -1.88923 3.18888 1.81427 3.71083 13.6692 -0.0 0.0 -0.0 13.6611 26.4839 -27.1517 -6.91845 48.1908 -62.684 0.510956 14.2042 -0.0636623 -65.1988 5.93546 -5.23339 -4.02548 -17.9285 17.3904 0.0 0.0 0.0 -3.16604 12.8422 7.77339 -44.5023 -0.777759 6.61674 36.041 20.0193 -4.64673 -29.9444 0.0 0.0 -0.0 0.0 -0.0 17.3058 20.6741 -4.37534 -22.189 -0.263213 -3.37367 2.77227 10.2705 0.424976 19.4821 -0.0 -0.0 0.0 0.0 0.0 
1037.26303226 697.096 -1524.47282459 3.62761751713 67.6444633511 -11.1371302525 -1.34576 1.09645 5.86654 -1.32692 0.721598 5.92414 -1.23474 -0.668645 5.93033 -1.28367 0.274611 5.96147 -1.07607 12.118 -17.5164 1.27682 35.6263 -18.108 -0.0 0.0 -0.0 -8.58526 23.707 -9.15444 3.792 -14.7704 68.0781 1.78475 -41.4765 0.675808 -29.2741 -1.88923 3.18888 1.81427 3.71083 13.6692 -0.0 0.0 -0.0 13.6611 26.4839 -27.1517 -6.91845 48.1908 -62.684 0.510956 14.2042 -0.0636623 -65.1988 5.93546 -5.23339 -4.02548 -17.9285 17.3904 0.0 0.0 0.0 -3.16604 12.8422 7.77339 -44.5023 -0.777759 6.61674 36.041 20.0193 -4.64673 -29.9444 0.0 0.0 -0.0 0.0 -0.0 17.3058 20.6741 -4.37534 -22.189 -0.263213 -3.37367 2.77227 10.2705 0.424976 19.4821 -0.0 -0.0 0.0 0.0 0.0 
996.652655347 708.454 -1505.98826982 2.0104246261 71.3368771865 -8.92289462218 -0.800138 1.04248 5.73113 -0.78213 0.676308 5.7856 -0.699904 -0.626537 5.79118 -0.746551 0.294338 5.81745 1.66602 9.34619 -20.68 4.82878 33.5538 -23.1661 -0.0 0.0 -0.0 -7.67716 23.5549 -7.90619 -0.279844 -9.81029 69.4228 1.2634 -32.039 0.362753 -30.8419 -2.03395 3.32842 1.22464 8.05869 11.3593 -0.0 0.0 -0.0 13.1589 25.5762 -26.0942 -5.11874 49.7122 -62.1112 0.711456 19.4142 -0.121704 -67.3385 6.20693 -5.27044 -3.82997 -16.8565 16.7971 0.0 0.0 0.0 -0.616945 20.5171 6.53417 -39.9351 -0.462641 5.9892 32.4678 12.6065 -4.17477 -31.2675 0.0 0.0 -0.0 0.0 -0.0 13.0394 10.1524 -1.79057 -17.5286 -0.31687 -2.66079 8.06842 15.2706 1.25647 18.6072 -0.0 -0.0 0.0 0.0 0.0 
998.508925982 708.454 -1523.56168824 1.76703028293 68.6499979903 -8.6639402244 -0.800138 1.04248 5.73113 -0.78213 0.676308 5.7856 -0.699904 -0.626537 5.79118 -0.746551 0.294338 5.81745 1.66602 9.34619 -20.68 4.82878 33.5538 -23.1661 -0.0 0.0 -0.0 -7.67716 23.5549 -7.90619 -0.279844 -9.81029 69.4228 1.2634 -32.039 0.362753 -30.8419 -2.03395 3.32842 1.22464 8.05869 11.3593 -0.0 0.0 -0.0 13.1589 25.5762 -26.0942 -5.11874 49.7122 -62.1112 0.711456 19.4142 -0.121704 -67.3385 6.20693 -5.27044 -3.82997 -16.8565 16.7971 0.0 0.0 0.0 -0.616945 20.5171 6.53417 -39.9351 -0.462641 5.9892 32.4678 12.6065 -4.17477 -31.2675 0.0 0.0 -0.0 0.0 -0.0 13.0394 10.1524 -1.79057 -17.5286 -0.31687 -2.66079 8.06842 15.2706 1.25647 18.6072 -0.0 -0.0 0.0 0.0 0.0 
